<svg id="spider" xmlns="http://www.w3.org/2000/svg" viewBox="0 0 139.33 140.63">
  <title>ally_footer_splash</title>
  <g id="_1" data-name="1">
    <path id="black_outline" data-name="black outline" d="M635,1052s5.83-7.46-21.33-17.79c0,0,36.33-15.17,6.66-34,0,0,22.84-4.17,10.34-23.67,0,0,35.83-1.33,8.16-34.17,0,0,36.17,29.67,35.84-12.66,0,0,30.33,29,39-15.34,0,0,6.66,38.67,36.33,19" transform="translate(-612.17 -912.83)" style="fill: none;stroke: #231f20;stroke-linecap: round;stroke-linejoin: round;stroke-width: 3px"/>
  </g>
  <g id="_2" data-name="2">
    <path id="color_fill" data-name="color fill" d="M717,1052a33.1,33.1,0,0,0,33-33V934.78c-1.13.75-2.23,1.41-3.3,2l3.3-3.44c-23.89,15.84-32.86-6.15-35.45-15.31-.31-1.25-.44-2-.44-2s0,.12,0,.19c-.28-1.17-.4-1.88-.4-1.88-8.67,44.34-39,15.34-39,15.34.33,42.33-35.84,12.66-35.84,12.66,27.67,32.84-8.16,34.17-8.16,34.17,12.5,19.5-10.34,23.67-10.34,23.67,29.67,18.83-6.66,34-6.66,34C640.83,1044.5,635,1052,635,1052Z" transform="translate(-612.17 -912.83)" style="fill: {primary_color}"/>
  </g>
  <g id="_3" data-name="3">
    <g id="black_outline-2" data-name="black outline">
      <path d="M750.59,933.7a1.41,1.41,0,0,0-.78.23c-7.75,5.06-14.46,6.42-20,4-10.52-4.56-13.59-21.37-13.62-21.54a1.5,1.5,0,0,0-1.46-1.24h0a1.5,1.5,0,0,0-1.47,1.21c-2.5,12.64-7.06,20.1-13.54,22.18-10.25,3.28-22.35-7.94-22.47-8.06a1.5,1.5,0,0,0-2.53,1.11c.09,10.75-2.3,17.38-7.08,19.69-9.46,4.56-25.7-8.41-25.86-8.54a1.5,1.5,0,0,0-2.09,2.14c8.35,9.76,11.55,17.67,9.27,22.89-3.2,7.31-16.12,7.89-16.25,7.89a1.49,1.49,0,0,0-1.27.81,1.51,1.51,0,0,0,.07,1.51c3.32,5.11,4.25,9.45,2.76,12.91-2.61,6.06-11.88,7.82-12,7.83a1.5,1.5,0,0,0-.53,2.75c7.54,4.72,11.17,9.5,10.77,14.2-.79,9.39-17,16.17-17.13,16.24a1.49,1.49,0,0,0-.93,1.41,1.51,1.51,0,0,0,1,1.38c16.08,6,19.71,10.78,20.45,13.07a2.34,2.34,0,0,1-.06,2,1.51,1.51,0,0,0,1.21,2.4,1.49,1.49,0,0,0,1.17-.57,5,5,0,0,0,.61-4.43c-1.29-4.65-7.7-9.34-19.06-14,5.24-2.71,15.05-8.86,15.76-17.23.45-5.24-2.72-10.33-9.4-15.15,3.48-1.19,8.75-3.73,10.89-8.69,1.69-3.92,1.11-8.5-1.74-13.66,4.41-.57,13.41-2.58,16.42-9.45,2.17-4.94.74-11.25-4.23-18.82,6.16,3.51,14.86,7,21.47,3.82,5.38-2.59,8.31-9.06,8.73-19.23,4.41,3.42,14,9.53,23,6.65,6.46-2.07,11.21-8.32,14.18-18.63,2,5.89,6,14.54,13.82,17.91,6.27,2.72,13.65,1.44,21.94-3.75Z" transform="translate(-612.17 -912.83)" style="fill: #fff"/>
    </g>
  </g>
  <g id="_4_textue" data-name="4 textue">
    <g style="opacity: 0.25" id="texture">
      <path d="M748.77,1017.57l1.32.32V1007l-2.35,1.18-1,.86a6.38,6.38,0,0,0-.39,6.21,6.29,6.29,0,0,0-6.17.36c1.32-3.31.91-5.6-1.18-7.19a5.16,5.16,0,0,0-7.88,6.13,4.39,4.39,0,0,0,3.3,2.87,21.39,21.39,0,0,0,4.21-.16,12.56,12.56,0,0,0-.64,2.59,13.32,13.32,0,0,0,.3,2.75,16.65,16.65,0,0,0-2.9-.27,15.15,15.15,0,0,0-2.76.73c1.17-3.34.68-5.65-1.58-7.15a5.15,5.15,0,0,0-7.46,6.61,4.39,4.39,0,0,0,3.35,2.64,20.94,20.94,0,0,0,4.14-.27,5.86,5.86,0,0,0-.34,5.43,16.56,16.56,0,0,0-3.08-.28,15.35,15.35,0,0,0-2.86.81c1.4-3,1-5.48-1.24-7.1a5.14,5.14,0,0,0-7.32,7c1.56,2.34,4.12,2.83,7.53,1.31a6.12,6.12,0,0,0-.61,6.16,6.2,6.2,0,0,0-6.11.54c1.44-3.37,1-5.8-1.25-7.39a5.14,5.14,0,0,0-7.45,6.73,4.4,4.4,0,0,0,3.38,2.44,23.32,23.32,0,0,0,4.07-.38c-1.13,1.62-1.14,3.61-.3,5.83a6,6,0,0,0-6.28.64l-.67.67a6.2,6.2,0,0,0-1.27,4c0,.72.22,1.06,1,1,3,0,6,0,9,0,.81,0,1.11-.3,1-1-.1-1-.23-2-.33-2.82l4,.35c0,1-.11,2.07-.16,3.19a32.89,32.89,0,0,0,19.61-10.28,32.24,32.24,0,0,0,8.77-20l-1.07.06C749,1020.34,748.9,1018.94,748.77,1017.57Zm-19.38,27-3.29.23c-.12-1.35-.23-2.71-.34-4l3.84.37C729.54,1042.23,729.46,1043.37,729.39,1044.57Zm7.68-7.8-3.28.22c-.12-1.28-.24-2.6-.36-3.84l3.84.39C737.21,1034.51,737.14,1035.62,737.07,1036.77Zm7.83-7.66-3.41.18c-.12-1.26-.24-2.59-.36-3.8l4,.34C745,1026.85,745,1028,744.9,1029.11Z" transform="translate(-612.17 -912.83)" style="fill: #000"/>
      <path d="M747.74,1008.15l-1,.86a16,16,0,0,1-3.76.85,4.82,4.82,0,0,1-4.46-3.85,5.16,5.16,0,1,1,9.82.71C748.11,1007.19,747.92,1007.67,747.74,1008.15Z" transform="translate(-612.17 -912.83)" style="fill: #000"/>
      <path d="M709.18,1046.6l-.67.67a15,15,0,0,1-2.89,1,4.92,4.92,0,0,1-5.34-3.33,5.13,5.13,0,0,1,2-6,5.15,5.15,0,0,1,7.4,6.71C709.48,1046,709.33,1046.28,709.18,1046.6Z" transform="translate(-612.17 -912.83)" style="fill: #000"/>
      <path d="M743.53,994.16a4.71,4.71,0,1,1,4.68-4.67A4.74,4.74,0,0,1,743.53,994.16Z" transform="translate(-612.17 -912.83)" style="fill: #000"/>
      <path d="M732.85,1004.86a4.71,4.71,0,1,1-4.59-4.75A4.74,4.74,0,0,1,732.85,1004.86Z" transform="translate(-612.17 -912.83)" style="fill: #000"/>
      <path d="M735.79,1001.84a4.71,4.71,0,1,1,4.74-4.61A4.75,4.75,0,0,1,735.79,1001.84Z" transform="translate(-612.17 -912.83)" style="fill: #000"/>
      <path d="M720.48,1017.2a4.71,4.71,0,1,1,4.69-4.66A4.75,4.75,0,0,1,720.48,1017.2Z" transform="translate(-612.17 -912.83)" style="fill: #000"/>
      <path d="M705.16,1023.18a4.68,4.68,0,1,1-4.73,4.56A4.66,4.66,0,0,1,705.16,1023.18Z" transform="translate(-612.17 -912.83)" style="fill: #000"/>
      <path d="M708.12,1020a4.67,4.67,0,1,1,4.44,4.84A4.64,4.64,0,0,1,708.12,1020Z" transform="translate(-612.17 -912.83)" style="fill: #000"/>
      <path d="M697.48,1030.86a4.68,4.68,0,1,1-4.73,4.56A4.66,4.66,0,0,1,697.48,1030.86Z" transform="translate(-612.17 -912.83)" style="fill: #000"/>
      <path d="M689.74,1038.32a4.65,4.65,0,1,1-4.64,4.63A4.62,4.62,0,0,1,689.74,1038.32Z" transform="translate(-612.17 -912.83)" style="fill: #000"/>
      <path d="M747.94,974.12a4.2,4.2,0,1,1-4.17-4.22A4.19,4.19,0,0,1,747.94,974.12Z" transform="translate(-612.17 -912.83)" style="fill: #000"/>
      <path d="M697.43,1052.33c-1.36,0-2.72,0-4.08,0-.62,0-.94-.14-1-.84a5,5,0,0,1,2.35-4.9,4.83,4.83,0,0,1,5.43,0,5,5,0,0,1,2.35,4.91c0,.7-.36.86-1,.84C700.14,1052.31,698.79,1052.33,697.43,1052.33Z" transform="translate(-612.17 -912.83)" style="fill: #000"/>
      <path d="M732.31,989.47a4.17,4.17,0,1,1-4.18-4.18A4.13,4.13,0,0,1,732.31,989.47Z" transform="translate(-612.17 -912.83)" style="fill: #000"/>
      <path d="M724.63,997.18a4.17,4.17,0,1,1-4.15-4.21A4.12,4.12,0,0,1,724.63,997.18Z" transform="translate(-612.17 -912.83)" style="fill: #000"/>
      <path d="M735.86,985.94a4.17,4.17,0,1,1,4.13-4.23A4.13,4.13,0,0,1,735.86,985.94Z" transform="translate(-612.17 -912.83)" style="fill: #000"/>
      <path d="M716.93,1004.81a4.15,4.15,0,1,1-4.09-4.14A4.1,4.1,0,0,1,716.93,1004.81Z" transform="translate(-612.17 -912.83)" style="fill: #000"/>
      <path d="M701.57,1020.17a4.15,4.15,0,1,1-4.09-4.14A4.09,4.09,0,0,1,701.57,1020.17Z" transform="translate(-612.17 -912.83)" style="fill: #000"/>
      <path d="M705,1016.64a4.15,4.15,0,1,1,4.22-4A4.1,4.1,0,0,1,705,1016.64Z" transform="translate(-612.17 -912.83)" style="fill: #000"/>
      <path d="M689.74,1031.74a4.13,4.13,0,1,1,4.13-4.06A4.07,4.07,0,0,1,689.74,1031.74Z" transform="translate(-612.17 -912.83)" style="fill: #000"/>
      <path d="M686.19,1035.34a4.13,4.13,0,1,1-4-4.17A4.08,4.08,0,0,1,686.19,1035.34Z" transform="translate(-612.17 -912.83)" style="fill: #000"/>
      <path d="M674.42,1047.08a4.11,4.11,0,1,1,4.08-4.11A4.05,4.05,0,0,1,674.42,1047.08Z" transform="translate(-612.17 -912.83)" style="fill: #000"/>
      <path d="M682,1052.33c-1.16,0-2.32.06-3.47,0a1.28,1.28,0,0,1-.92-.75,4.49,4.49,0,0,1,1.89-4.71,4.67,4.67,0,0,1,5.19,0,4.5,4.5,0,0,1,1.92,4.7,1.29,1.29,0,0,1-.9.77C684.44,1052.39,683.2,1052.33,682,1052.33Z" transform="translate(-612.17 -912.83)" style="fill: #000"/>
      <path d="M732,974.15a3.61,3.61,0,1,1-3.48-3.66A3.58,3.58,0,0,1,732,974.15Z" transform="translate(-612.17 -912.83)" style="fill: #000"/>
      <path d="M739.67,966.5a3.61,3.61,0,1,1-3.46-3.69A3.58,3.58,0,0,1,739.67,966.5Z" transform="translate(-612.17 -912.83)" style="fill: #000"/>
      <path d="M720.45,985.37a3.6,3.6,0,1,1,3.61-3.55A3.62,3.62,0,0,1,720.45,985.37Z" transform="translate(-612.17 -912.83)" style="fill: #000"/>
      <path d="M743.69,962.34a3.61,3.61,0,1,1,3.66-3.49A3.59,3.59,0,0,1,743.69,962.34Z" transform="translate(-612.17 -912.83)" style="fill: #000"/>
      <path d="M716.38,989.49a3.6,3.6,0,1,1-3.53-3.63A3.6,3.6,0,0,1,716.38,989.49Z" transform="translate(-612.17 -912.83)" style="fill: #000"/>
      <path d="M705.16,1000.72a3.59,3.59,0,1,1,3.53-3.64A3.62,3.62,0,0,1,705.16,1000.72Z" transform="translate(-612.17 -912.83)" style="fill: #000"/>
      <path d="M693.33,1012.47a3.59,3.59,0,1,1-3.61-3.56A3.62,3.62,0,0,1,693.33,1012.47Z" transform="translate(-612.17 -912.83)" style="fill: #000"/>
      <path d="M697.25,1008.39A3.58,3.58,0,1,1,701,1005,3.61,3.61,0,0,1,697.25,1008.39Z" transform="translate(-612.17 -912.83)" style="fill: #000"/>
      <path d="M666.78,1052.33c-1,0-2,0-3,0-.74.05-1-.3-1.11-.93a4.14,4.14,0,0,1,1.77-4.17,4.06,4.06,0,0,1,4.52,0,4.13,4.13,0,0,1,1.78,4.17c-.12.6-.33,1-1.09.94C668.7,1052.28,667.74,1052.33,666.78,1052.33Z" transform="translate(-612.17 -912.83)" style="fill: #000"/>
      <path d="M674.4,1031.18a3.57,3.57,0,1,1,3.56-3.61A3.62,3.62,0,0,1,674.4,1031.18Z" transform="translate(-612.17 -912.83)" style="fill: #000"/>
      <path d="M662.58,1042.91a3.55,3.55,0,1,1-3.55-3.49A3.62,3.62,0,0,1,662.58,1042.91Z" transform="translate(-612.17 -912.83)" style="fill: #000"/>
      <path d="M670.26,1035.35a3.55,3.55,0,1,1-3.44-3.61A3.61,3.61,0,0,1,670.26,1035.35Z" transform="translate(-612.17 -912.83)" style="fill: #000"/>
      <path d="M682,1016.36a3.57,3.57,0,1,1-3.52,3.65A3.64,3.64,0,0,1,682,1016.36Z" transform="translate(-612.17 -912.83)" style="fill: #000"/>
      <path d="M750.09,992.25a5,5,0,0,0,0,9.77Z" transform="translate(-612.17 -912.83)" style="fill: #000"/>
      <path d="M651.39,1052.33a15.25,15.25,0,0,0-2,0c-1.1.14-1.4-.44-1.45-1.36a3.46,3.46,0,0,1,5.51-3.11,3.39,3.39,0,0,1,1.31,3.5c-.11.72-.44,1-1.19,1S652.11,1052.33,651.39,1052.33Z" transform="translate(-612.17 -912.83)" style="fill: #000"/>
      <path d="M750.09,977.36a4.53,4.53,0,0,0,0,8.83Z" transform="translate(-612.17 -912.83)" style="fill: #000"/>
      <path d="M731.28,958.91a2.9,2.9,0,1,1-2.69-3.07A2.86,2.86,0,0,1,731.28,958.91Z" transform="translate(-612.17 -912.83)" style="fill: #000"/>
      <path d="M746.67,943.41a2.92,2.92,0,1,1-2.83-3A2.88,2.88,0,0,1,746.67,943.41Z" transform="translate(-612.17 -912.83)" style="fill: #000"/>
      <path d="M739,951a2.9,2.9,0,1,1-2.9-2.87A2.86,2.86,0,0,1,739,951Z" transform="translate(-612.17 -912.83)" style="fill: #000"/>
      <path d="M723.61,966.38a2.9,2.9,0,1,1-2.91-2.87A2.86,2.86,0,0,1,723.61,966.38Z" transform="translate(-612.17 -912.83)" style="fill: #000"/>
      <path d="M705.33,978.89a2.89,2.89,0,1,1-2.87,2.9A2.87,2.87,0,0,1,705.33,978.89Z" transform="translate(-612.17 -912.83)" style="fill: #000"/>
      <path d="M713,977a2.89,2.89,0,1,1,2.92-2.85A2.88,2.88,0,0,1,713,977Z" transform="translate(-612.17 -912.83)" style="fill: #000"/>
      <path d="M697.26,992.32a2.87,2.87,0,1,1,3-2.73A2.9,2.9,0,0,1,697.26,992.32Z" transform="translate(-612.17 -912.83)" style="fill: #000"/>
      <path d="M669.56,1020a2.86,2.86,0,1,1-2.81-2.87A2.91,2.91,0,0,1,669.56,1020Z" transform="translate(-612.17 -912.83)" style="fill: #000"/>
      <path d="M689.77,1000a2.87,2.87,0,1,1,2.85-2.92A2.88,2.88,0,0,1,689.77,1000Z" transform="translate(-612.17 -912.83)" style="fill: #000"/>
      <path d="M674.41,1009.4a2.86,2.86,0,1,1-2.88,2.8A2.9,2.9,0,0,1,674.41,1009.4Z" transform="translate(-612.17 -912.83)" style="fill: #000"/>
      <path d="M684.92,1004.55a2.86,2.86,0,1,1-2.84-2.83A2.91,2.91,0,0,1,684.92,1004.55Z" transform="translate(-612.17 -912.83)" style="fill: #000"/>
      <path d="M659,1024.78a2.83,2.83,0,1,1-2.77,2.89A2.91,2.91,0,0,1,659,1024.78Z" transform="translate(-612.17 -912.83)" style="fill: #000"/>
      <path d="M651.33,1032.46a2.83,2.83,0,1,1-2.81,2.85A2.9,2.9,0,0,1,651.33,1032.46Z" transform="translate(-612.17 -912.83)" style="fill: #000"/>
      <path d="M646.5,1043a2.83,2.83,0,1,1-2.81-2.86A2.89,2.89,0,0,1,646.5,1043Z" transform="translate(-612.17 -912.83)" style="fill: #000"/>
      <path d="M750.09,962.65a3.83,3.83,0,0,0-2.76,3.91,3.76,3.76,0,0,0,2.76,3.61Z" transform="translate(-612.17 -912.83)" style="fill: #000"/>
      <path d="M635.4,1052.33V1048a2.66,2.66,0,0,1,3.39,2.71c0,1.21-.44,1.6-1.64,1.6Z" transform="translate(-612.17 -912.83)" style="fill: #000"/>
      <path d="M750.09,947.89a3.37,3.37,0,0,0-2.2,3.39,3.22,3.22,0,0,0,2.2,2.91Z" transform="translate(-612.17 -912.83)" style="fill: #000"/>
      <path d="M730.39,943.33a2,2,0,1,1-2-2A2,2,0,0,1,730.39,943.33Z" transform="translate(-612.17 -912.83)" style="fill: #000"/>
      <path d="M722.67,951a2,2,0,1,1-2-1.91A1.92,1.92,0,0,1,722.67,951Z" transform="translate(-612.17 -912.83)" style="fill: #000"/>
      <path d="M715,958.73a2,2,0,1,1-2-2A1.92,1.92,0,0,1,715,958.73Z" transform="translate(-612.17 -912.83)" style="fill: #000"/>
      <path d="M684,989.2a1.92,1.92,0,1,1-1.9-1.9A1.93,1.93,0,0,1,684,989.2Z" transform="translate(-612.17 -912.83)" style="fill: #000"/>
      <path d="M699.6,974.09a1.94,1.94,0,1,1-1.88-1.93A1.9,1.9,0,0,1,699.6,974.09Z" transform="translate(-612.17 -912.83)" style="fill: #000"/>
      <path d="M691.92,981.81a1.94,1.94,0,1,1-1.84-2A1.91,1.91,0,0,1,691.92,981.81Z" transform="translate(-612.17 -912.83)" style="fill: #000"/>
      <path d="M707.28,966.36a1.94,1.94,0,1,1-1.93-1.88A1.91,1.91,0,0,1,707.28,966.36Z" transform="translate(-612.17 -912.83)" style="fill: #000"/>
      <path d="M659,1014.14a1.89,1.89,0,1,1,1.88-1.92A2,2,0,0,1,659,1014.14Z" transform="translate(-612.17 -912.83)" style="fill: #000"/>
      <path d="M666.72,1002.69a1.89,1.89,0,1,1-1.9,1.9A1.94,1.94,0,0,1,666.72,1002.69Z" transform="translate(-612.17 -912.83)" style="fill: #000"/>
      <path d="M674.42,995a1.89,1.89,0,1,1-1.92,1.88A1.95,1.95,0,0,1,674.42,995Z" transform="translate(-612.17 -912.83)" style="fill: #000"/>
      <path d="M637.83,1035.32a1.85,1.85,0,1,1-1.81-1.87A1.9,1.9,0,0,1,637.83,1035.32Z" transform="translate(-612.17 -912.83)" style="fill: #000"/>
      <path d="M653.19,1020a1.85,1.85,0,1,1-1.81-1.87A1.9,1.9,0,0,1,653.19,1020Z" transform="translate(-612.17 -912.83)" style="fill: #000"/>
      <path d="M643.69,1029.46a1.85,1.85,0,1,1,1.82-1.87A1.91,1.91,0,0,1,643.69,1029.46Z" transform="translate(-612.17 -912.83)" style="fill: #000"/>
      <path d="M750.42,935.05v3.3a2.24,2.24,0,0,1-1.75-2.08c0-.52,1-1,1.47-1.48Z" transform="translate(-612.17 -912.83)" style="fill: #000"/>
      <path d="M706.42,951c-.52.35-.84.73-1.09.69a1.05,1.05,0,0,1-.66-.74c0-.17.41-.62.64-.62S705.89,950.7,706.42,951Z" transform="translate(-612.17 -912.83)" style="fill: #000"/>
      <path d="M720.63,934.63c.38.49.78.78.76,1a1.1,1.1,0,0,1-.7.71c-.17,0-.65-.38-.67-.61S720.32,935.17,720.63,934.63Z" transform="translate(-612.17 -912.83)" style="fill: #000"/>
      <path d="M714.1,943.41c-.54.33-.87.69-1.12.64a1.06,1.06,0,0,1-.63-.77c0-.17.44-.6.67-.59S713.58,943,714.1,943.41Z" transform="translate(-612.17 -912.83)" style="fill: #000"/>
    </g>
  </g>
</svg>
