<svg id="thunder" xmlns="http://www.w3.org/2000/svg" viewBox="0 0 30.7 34.51">
  <title>resource_icon_energy</title>
  <g id="icon">
    <path d="M74.11,984.35s-16.72,8.54-18.9,10.18a5.66,5.66,0,0,0-1.16,1.1h0a2.7,2.7,0,0,0-.68,1.84,1.77,1.77,0,0,0,.56,1.19h0l.07.05h0c1,.65,4.37,1.13,7,1.3-2.31,2.52-5.19,5.87-6.85,7.82a24.8,24.8,0,0,1-2.58-3.56c-1-3.09-2-3-3.26-2.39s-3,15.61-1.43,16.45,15.41-.51,17.21-1.63,1.8-2.81-3.45-4.26a10.46,10.46,0,0,1-3.18-1.56c4.87-2.52,14.44-7.51,16.06-8.72a5.94,5.94,0,0,0,1.16-1.1h0a2.66,2.66,0,0,0,.68-1.83,1.75,1.75,0,0,0-.56-1.19h0a.21.21,0,0,0-.07,0h0c-1-.64-4.37-1.12-7-1.29,3.46-3.77,8.19-9.42,8.19-9.42C79.19,982.74,74.11,984.35,74.11,984.35Z" transform="translate(-46.31 -984.07)" style="fill: #95742c"/>
  </g>
</svg>
