<svg id="consequence" xmlns="http://www.w3.org/2000/svg" viewBox="0 0 34.83 33.25"><title>consequence_icon</title><g id="star"><path d="M80.74,348a16.28,16.28,0,0,0,8.46,2.51,14.67,14.67,0,0,0,2.65-.24,22,22,0,0,0,.48,9.95,19.58,19.58,0,0,0-9,3.66A19.66,19.66,0,0,0,76.44,357a19.47,19.47,0,0,0,4.3-8.95m-3.29-8.29C77.87,357.55,66.88,358,65.77,358h-.09c15.43.75,16.59,15,16.59,15,1.48-8.07,10.6-9.14,15.36-9.14a26.35,26.35,0,0,1,2.88.14c-9.74-4.5-2.22-21.5-2.22-21.5-3.26,3-6.34,4.05-9.09,4.05-6.94,0-11.75-6.8-11.75-6.8Zm20.84,2.75Z" transform="translate(-65.68 -339.75)" style="fill:#fff"/></g></svg>