<svg id="strength" xmlns="http://www.w3.org/2000/svg" viewBox="0 0 40.03 28.23"><title>strength-icon</title><path id="_2" data-name="2" d="M67.31,951c-5.38,1.38-5.69,4.92-5.69,4.92-2.37,1.87-4.06.83-4.06.83-2.13-1.5-5.39-.5-5.39-.5s-3,1.25-1.49-2-3.5-11-4.5-12-1.12-2.5,1.5-1.12S53.39,951,54.47,953s4.09,1.09,4.25-1.16-6-12.59-6-12.59-2.41-3.08,0-1.75,6.75,10.42,9.17,11.75,3.92-1.25,3.92-2a6.41,6.41,0,0,0-1-2.25c.08-2-5.34-7-6.17-7.66s-.42-1.42.33-1.09,6.5,5.5,7.25,8.25,3,4.46,4,4.46,2.13-2,2-4.37S70.93,942,70.93,942s-5.62-5.25-7.87-7.5a3.28,3.28,0,0,0-4.5-.37c-1.5-2.88-6.75-.5-6.75-.5-3.87-.13-11.25,6.12-13,8s-2.63,4.5-4.13,6-2.12,4.37-2.5,5,4.38,6.25,6.63,7.75,9-.5,9-.5c2.5,1.25,11.37-.13,15-1s8.45-6.13,8.45-6.13S72.68,949.59,67.31,951Zm-23,5.75c-1,1-2.92,0-3.77-1.75,0,0,1.27-.37,1-3.12a48.68,48.68,0,0,0-1-5.88s-.25-2,1-1.87,2.75,6.37,2.75,6.37S45.31,955.71,44.31,956.71Z" transform="translate(-32.16 -932.67)" style="fill: {fill_color}"/></svg>