<svg id="wild_icon" xmlns="http://www.w3.org/2000/svg" viewBox="0 0 41.17 41.83"><title>wild_icon</title><g id="_2" data-name="2"><path d="M76.64,885.68l2-9.67L70,877.51l-9.67-11.83L56.14,880,45,882l10.33,10.17L53.14,905l11.5-6,10.84,8.5,1.16-11.67,9.5-2.33ZM74.31,893l-3.67-6.42,2,15.09-6.33-5.5,2.17-8.84a4.7,4.7,0,0,0-2.92,1.17c-1.25,1.17-7.58,9-7.58,9l1.33-7-7-5.83,14-.84-6.17-3.16,1.5-7.67,7,9.83L73,880l-1.17,5,6.83,7Z" transform="translate(-44.98 -865.68)" style="fill: {fill_color}"/></g></svg>